<svg width="220" height="48" viewBox="0 0 220 48" fill="none" xmlns="http://www.w3.org/2000/svg">
  <defs>
    <linearGradient id="wfg" x1="0" y1="0" x2="48" y2="48" gradientUnits="userSpaceOnUse">
      <stop offset="0%" stop-color="#2a2a2a"/>
      <stop offset="100%" stop-color="#111111"/>
    </linearGradient>
    <linearGradient id="wsg" x1="29" y1="9" x2="19" y2="39" gradientUnits="userSpaceOnUse">
      <stop offset="0%" stop-color="#cc2020"/>
      <stop offset="100%" stop-color="#6b0000"/>
    </linearGradient>
  </defs>
  <!-- icon -->
  <rect x="1" y="1" width="46" height="46" rx="11" fill="url(#wfg)" stroke="#333333" stroke-width="1"/>
  <path d="M15 12 L10 12 L10 36 L15 36" stroke="#e0e0e0" stroke-width="1.8" stroke-linecap="round" stroke-linejoin="round" fill="none"/>
  <path d="M33 12 L38 12 L38 36 L33 36" stroke="#e0e0e0" stroke-width="1.8" stroke-linecap="round" stroke-linejoin="round" fill="none"/>
  <line x1="30" y1="11" x2="19" y2="37" stroke="url(#wsg)" stroke-width="1.8" stroke-linecap="round"/>
  <path d="M28 16 C24 13 18 14 16 20 C14 26 17 32 24 33" stroke="#d0d0d0" stroke-width="1.5" fill="none" stroke-linecap="round"/>
  <circle cx="28" cy="16" r="1.3" fill="#e8e8e8"/>
  <circle cx="24" cy="33" r="1.3" fill="#e8e8e8"/>
  <!-- divider -->
  <line x1="60" y1="8" x2="60" y2="40" stroke="#2a2a2a" stroke-width="1"/>
  <!-- Company. text -->
  <text x="72" y="25" font-family="'Syne', sans-serif" font-weight="800" font-size="22" fill="#1d1d1f" letter-spacing="-0.5">Company<tspan fill="#8B1A1A">.</tspan></text>
  <!-- Software App text -->
  <text x="72" y="43" font-family="'DM Mono', monospace" font-weight="400" font-size="8" fill="#444444" letter-spacing="3">SOFTWARE APP</text>
</svg>
